# xmcd CD database file
#
# Track frame offsets:
#	150
#	13556
#	31538
#	45266
#	60957
#	76282
#	90568
#	110295
#	124542
#	142314
#	166654
#	178947
#	193340
#	208417
#
# Disc length: 3039 seconds
#
# Revision: 1
# Processed by: cddbd v1.5.1PL0 Copyright (c) Steve Scherf et al.
# Submitted via: CDex 1.51
#
DISCID=b10bdd0e
DTITLE=Roosevelt Sykes - Feel like blowing my horn
DYEAR=1970
DGENRE=Blues
TTITLE0=Feel like blowing my horn
TTITLE1=My Harmstring's poppin'
TTITLE2=I'm a nut
TTITLE3=Blues will prank with your soul
TTITLE4=Jubilee time (alternate)
TTITLE5=All days are good days (alternate)
TTITLE6=Sykes' Gumbuugie
TTITLE7=Rock-a-bye birdie
TTITLE8=Moving blues
TTITLE9=Don't bat your eye
TTITLE10=All days are good days
TTITLE11=Eagle rock me, baby
TTITLE12=Jubilee time
TTITLE13=Love the one you are with
EXTD=YEAR: 1970
EXTT0=
EXTT1=
EXTT2=
EXTT3=
EXTT4=
EXTT5=
EXTT6=
EXTT7=
EXTT8=
EXTT9=
EXTT10=
EXTT11=
EXTT12=
EXTT13=
PLAYORDER=
